<?xml version="1.0" encoding="utf-8"?>
<!-- Generator: Adobe Illustrator 27.3.1, SVG Export Plug-In . SVG Version: 6.00 Build 0)  -->
<svg version="1.1" id="Layer_1" xmlns="http://www.w3.org/2000/svg" xmlns:xlink="http://www.w3.org/1999/xlink" x="0px" y="0px"
	 viewBox="0 0 1000 234.45" style="enable-background:new 0 0 1000 234.45;" xml:space="preserve">
<style type="text/css">
	.st0{clip-path:url(#SVGID_00000171721908758037479520000000056715267796892815_);}
	.st1{fill:#39B44A;}
	.st2{fill:#27AAE1;}
	.st3{fill:#FFFFFF;filter:url(#Adobe_OpacityMaskFilter);}
	.st4{mask:url(#mask0_1380_35_00000005945657206783270770000018195949023211209112_);}
	.st5{fill:url(#SVGID_00000103241194866990971450000007635193845151735431_);}
	.st6{fill:#FFFFFF;filter:url(#Adobe_OpacityMaskFilter_00000089536832188637637250000006386459284995768508_);}
	.st7{mask:url(#mask1_1380_35_00000000208145169126759920000006642980285877218178_);}
	.st8{fill:url(#SVGID_00000170260132032736289370000004546521522480531643_);}
	.st9{fill:#FFFFFF;}
	.st10{fill:#FFFFFF;filter:url(#Adobe_OpacityMaskFilter_00000155114639887454864380000018030226614924953018_);}
	.st11{mask:url(#mask2_1380_35_00000111176962712267765500000017444879638763016843_);}
	.st12{fill:url(#SVGID_00000148627622928262327420000002889737229178410681_);}
</style>
<g>
	<defs>
		<rect id="SVGID_1_" x="2.5" y="0.59" width="995" height="233.28"/>
	</defs>
	<clipPath id="SVGID_00000141454697740937431180000004991382675118469776_">
		<use xlink:href="#SVGID_1_"  style="overflow:visible;"/>
	</clipPath>
	<g style="clip-path:url(#SVGID_00000141454697740937431180000004991382675118469776_);">
		<path class="st1" d="M241.17,40.91c3.66-6.63,8.77-11.8,15.33-15.5c6.54-3.71,13.98-5.55,22.28-5.55
			c10.17,0,18.88,2.68,26.12,8.06c7.25,5.38,12.09,12.69,14.52,21.96h-22.95c-1.7-3.58-4.13-6.3-7.27-8.18
			c-3.14-1.88-6.7-2.8-10.68-2.8c-6.43,0-11.64,2.24-15.63,6.71c-4,4.49-5.99,10.46-5.99,17.94c0,7.49,1.99,13.47,5.99,17.94
			c3.98,4.49,9.19,6.71,15.63,6.71c3.98,0,7.55-0.94,10.68-2.81c3.14-1.88,5.55-4.6,7.27-8.18h22.95
			c-2.44,9.27-7.29,16.57-14.52,21.91c-7.25,5.33-15.96,7.99-26.12,7.99c-8.3,0-15.73-1.85-22.28-5.55
			c-6.56-3.71-11.67-8.85-15.33-15.45c-3.66-6.59-5.5-14.11-5.5-22.57C235.67,55.09,237.49,47.54,241.17,40.91z"/>
		<path class="st1" d="M345.24,103.22c-5.33-2.85-9.53-6.92-12.58-12.21c-3.05-5.29-4.59-11.47-4.59-18.55
			c0-7.08,1.55-13.17,4.64-18.5s7.32-9.42,12.7-12.27c5.38-2.85,11.4-4.26,18.06-4.26s12.69,1.41,18.08,4.26
			c5.38,2.85,9.6,6.94,12.7,12.27c3.09,5.33,4.64,11.49,4.64,18.5c0,7-1.56,13.17-4.7,18.5c-3.14,5.33-7.4,9.42-12.82,12.27
			c-5.41,2.85-11.45,4.26-18.13,4.26C356.57,107.48,350.56,106.06,345.24,103.22 M373.46,85.03c2.8-2.93,4.21-7.12,4.21-12.58
			c0-5.46-1.36-9.64-4.1-12.58c-2.73-2.93-6.09-4.4-10.07-4.4s-7.45,1.45-10.14,4.33c-2.68,2.88-4.03,7.1-4.03,12.63
			c0,5.53,1.31,9.64,3.96,12.58c2.65,2.93,5.97,4.4,9.95,4.4c4,0.01,7.39-1.45,10.2-4.38"/>
		<path class="st1" d="M517.14,45.36c5.01,5.13,7.5,12.24,7.5,21.36v39.78h-20.76V69.53c0-4.4-1.16-7.79-3.48-10.2
			c-2.33-2.39-5.51-3.59-9.58-3.59c-4.07,0-7.27,1.2-9.58,3.59c-2.33,2.41-3.48,5.8-3.48,10.2v36.97h-20.76V69.53
			c0-4.4-1.16-7.79-3.49-10.2c-2.31-2.39-5.51-3.59-9.58-3.59c-4.07,0-7.27,1.2-9.58,3.59c-2.31,2.41-3.48,5.8-3.48,10.2v36.97
			h-20.88V38.42h20.88v8.55c2.13-2.85,4.89-5.11,8.3-6.78c3.43-1.67,7.29-2.49,11.6-2.49c5.13,0,9.72,1.1,13.73,3.29
			c4.03,2.19,7.18,5.33,9.46,9.41c2.36-3.74,5.58-6.79,9.64-9.15c4.06-2.36,8.5-3.54,13.31-3.54c8.47-0.01,15.21,2.55,20.2,7.67"/>
		<path class="st1" d="M568.61,40.36c3.58-1.95,7.78-2.94,12.58-2.94c5.62,0,10.71,1.41,15.26,4.26c4.55,2.85,8.17,6.92,10.81,12.21
			c2.65,5.29,3.96,11.43,3.96,18.42s-1.33,13.17-3.96,18.5c-2.65,5.33-6.24,9.44-10.81,12.32c-4.55,2.88-9.65,4.33-15.26,4.33
			c-4.73,0-8.9-0.98-12.52-2.94c-3.63-1.95-6.46-4.47-8.48-7.57v41.98h-20.9V38.42h20.88v9.64
			C562.21,44.87,565.01,42.31,568.61,40.36 M585.64,60.08c-2.89-2.96-6.46-4.45-10.68-4.45c-4.22,0-7.68,1.5-10.56,4.52
			c-2.89,3-4.33,7.12-4.33,12.32c0,5.21,1.45,9.32,4.33,12.32c2.89,3.01,6.41,4.52,10.56,4.52c4.15,0,7.69-1.51,10.62-4.59
			c2.94-3.05,4.4-7.18,4.4-12.39C589.98,67.14,588.53,63.06,585.64,60.08"/>
		<path class="st1" d="M643.08,16.2h-20.88v90.31h20.88V16.2z"/>
		<path class="st1" d="M659.75,28.1c-2.33-2.16-3.49-4.82-3.49-7.99s1.16-5.97,3.49-8.13c2.31-2.16,5.31-3.24,8.97-3.24
			c3.66,0,6.53,1.08,8.85,3.24c2.32,2.16,3.48,4.87,3.48,8.13c0,3.25-1.16,5.83-3.48,7.99c-2.33,2.16-5.26,3.24-8.85,3.24
			C665.13,31.33,662.08,30.25,659.75,28.1z M679.11,106.51h-20.88V38.4h20.88V106.51z"/>
		<path class="st1" d="M694.05,53.91c2.65-5.29,6.24-9.36,10.81-12.21c4.55-2.85,9.65-4.26,15.27-4.26c4.8,0,9,0.98,12.63,2.94
			c3.63,1.95,6.41,4.52,8.37,7.69v-9.64H762v68.09h-20.88v-9.64c-2.04,3.17-4.88,5.73-8.48,7.69c-3.63,1.95-7.84,2.93-12.63,2.93
			c-5.53,0-10.58-1.43-15.14-4.33c-4.57-2.88-8.16-6.99-10.81-12.32c-2.65-5.33-3.96-11.49-3.96-18.5
			C690.1,65.35,691.43,59.21,694.05,53.91 M736.79,60.13c-2.89-3-6.41-4.52-10.56-4.52c-4.15,0-7.67,1.49-10.56,4.45
			c-2.88,2.96-4.34,7.07-4.34,12.27s1.45,9.34,4.34,12.39c2.89,3.05,6.41,4.59,10.56,4.59c4.16,0,7.68-1.5,10.56-4.52
			c2.89-3.01,4.33-7.12,4.33-12.32C741.12,67.26,739.69,63.14,736.79,60.13"/>
		<path class="st1" d="M837.76,45.43c4.75,5.18,7.13,12.26,7.13,21.29v39.78h-20.75V69.54c0-4.55-1.18-8.09-3.54-10.62
			c-2.36-2.53-5.53-3.79-9.53-3.79c-4,0-7.17,1.26-9.53,3.79c-2.36,2.51-3.54,6.05-3.54,10.62v36.97h-20.88V38.4H798v9.04
			c2.11-3,4.96-5.39,8.55-7.13c3.59-1.74,7.6-2.63,12.09-2.63C826.62,37.67,832.99,40.25,837.76,45.43"/>
		<path class="st1" d="M859.61,53.91c2.89-5.29,6.92-9.36,12.09-12.21c5.16-2.85,11.09-4.26,17.76-4.26
			c8.55,0,15.68,2.24,21.43,6.71c5.73,4.49,9.49,10.79,11.29,18.91h-22.22c-1.88-5.21-5.5-7.8-10.86-7.8
			c-3.83,0-6.88,1.49-9.16,4.45c-2.28,2.96-3.43,7.22-3.43,12.74s1.13,9.78,3.43,12.74c2.28,2.96,5.33,4.45,9.16,4.45
			c5.38,0,8.99-2.61,10.86-7.8h22.22c-1.79,7.98-5.58,14.25-11.34,18.8c-5.79,4.55-12.91,6.83-21.37,6.83
			c-6.68,0-12.6-1.41-17.76-4.26c-5.16-2.85-9.19-6.92-12.09-12.21c-2.88-5.29-4.34-11.47-4.34-18.55
			C855.29,65.37,856.73,59.2,859.61,53.91"/>
		<path class="st1" d="M997.14,77.46h-47.26c0.32,4.23,1.69,7.47,4.08,9.71c2.4,2.24,5.35,3.35,8.85,3.35
			c5.21,0,8.84-2.19,10.86-6.59h22.22c-1.15,4.49-3.2,8.49-6.17,12.09c-2.96,3.58-6.69,6.39-11.17,8.42
			c-4.47,2.04-9.48,3.05-15.01,3.05c-6.68,0-12.62-1.41-17.82-4.26c-5.21-2.85-9.28-6.92-12.21-12.21
			c-2.94-5.29-4.4-11.47-4.4-18.55c0-7.08,1.45-13.27,4.33-18.55c2.89-5.29,6.93-9.36,12.14-12.21c5.21-2.85,11.18-4.26,17.95-4.26
			c6.77,0,12.46,1.38,17.59,4.15c5.13,2.76,9.14,6.71,12.03,11.83c2.89,5.13,4.33,11.11,4.33,17.94
			C997.5,73.32,997.38,75.36,997.14,77.46 M976.15,65.88c0-3.58-1.21-6.43-3.66-8.55c-2.45-2.13-5.5-3.17-9.15-3.17
			c-3.66,0-6.46,1.01-8.85,3.05c-2.41,2.04-3.88,4.93-4.45,8.67H976.15L976.15,65.88z"/>
		<path class="st2" d="M319.67,138.56l-30.4,85.68h-26.13l-30.41-85.68h22.23l21.23,64.68l21.37-64.68H319.67z"/>
		<path class="st2" d="M329.86,145.81c-2.33-2.16-3.48-4.82-3.48-7.99c0-3.17,1.16-5.97,3.48-8.11c2.33-2.16,5.31-3.24,8.97-3.24
			s6.53,1.08,8.85,3.24c2.33,2.16,3.49,4.85,3.49,8.11c0,3.26-1.16,5.83-3.49,7.99c-2.31,2.16-5.26,3.24-8.85,3.24
			C335.18,149.05,332.19,147.97,329.86,145.81z M349.22,224.24h-20.88v-68.11h20.88V224.24z"/>
		<path class="st2" d="M376.18,222.16c-4.64-2.04-8.3-4.82-10.99-8.36c-2.68-3.54-4.2-7.5-4.52-11.91h20.62
			c0.25,2.36,1.35,4.26,3.29,5.73c1.95,1.46,4.35,2.19,7.2,2.19c2.6,0,4.63-0.5,6.04-1.54c1.41-1.01,2.14-2.34,2.14-3.96
			c0-1.95-1.03-3.39-3.05-4.33c-2.04-0.93-5.33-1.98-9.88-3.12c-4.89-1.13-8.95-2.34-12.21-3.59c-3.25-1.26-6.07-3.25-8.43-5.99
			s-3.54-6.4-3.54-11.04c0-3.91,1.08-7.47,3.24-10.67c2.16-3.22,5.33-5.75,9.53-7.62c4.18-1.87,9.18-2.8,14.96-2.8
			c8.55,0,15.28,2.13,20.2,6.34c4.93,4.23,7.76,9.84,8.48,16.85H400c-0.32-2.36-1.36-4.23-3.12-5.62c-1.75-1.38-4.05-2.08-6.9-2.08
			c-2.45,0-4.32,0.47-5.62,1.4c-1.3,0.94-1.95,2.21-1.95,3.84c0,1.95,1.04,3.43,3.12,4.4c2.08,0.98,5.31,1.95,9.72,2.93
			c5.04,1.3,9.15,2.58,12.33,3.84c3.17,1.26,5.97,3.29,8.37,6.1c2.41,2.81,3.64,6.58,3.73,11.29c0,3.99-1.11,7.55-3.35,10.67
			c-2.24,3.14-5.45,5.6-9.65,7.38c-4.2,1.79-9.05,2.68-14.58,2.68c-5.95,0-11.25-1.03-15.88-3.05"/>
		<path class="st2" d="M470.44,206.53v17.7h-10.63c-7.57,0-13.48-1.85-17.71-5.55c-4.23-3.71-6.34-9.74-6.34-18.12v-27.09h-8.3
			v-17.35h8.3v-16.59h20.88v16.59h13.68v17.33h-13.68v27.34c0,2.04,0.49,3.5,1.46,4.38c0.98,0.89,2.6,1.35,4.89,1.35H470.44
			L470.44,206.53z"/>
		<path class="st2" d="M481.86,171.62c2.65-5.29,6.24-9.36,10.81-12.21c4.55-2.85,9.64-4.26,15.26-4.26c4.8,0,9,0.98,12.63,2.94
			c3.63,1.95,6.41,4.52,8.37,7.69v-9.64h20.88v68.11h-20.88v-9.64c-2.04,3.17-4.88,5.73-8.48,7.69c-3.63,1.95-7.84,2.93-12.63,2.93
			c-5.53,0-10.59-1.44-15.14-4.33c-4.58-2.88-8.17-6.99-10.81-12.32c-2.65-5.33-3.96-11.49-3.96-18.5
			C477.91,183.07,479.22,176.91,481.86,171.62 M524.59,177.86c-2.89-3-6.41-4.52-10.56-4.52c-4.16,0-7.68,1.49-10.56,4.45
			c-2.89,2.96-4.33,7.07-4.33,12.27c0,5.21,1.45,9.34,4.33,12.39c2.89,3.05,6.41,4.59,10.56,4.59c4.15,0,7.67-1.5,10.56-4.52
			c2.89-3.01,4.33-7.12,4.33-12.32S527.48,180.85,524.59,177.86"/>
		<defs>
			<filter id="Adobe_OpacityMaskFilter" filterUnits="userSpaceOnUse" x="2.5" y="0.59" width="194.33" height="233.28">
				<feColorMatrix  type="matrix" values="1 0 0 0 0  0 1 0 0 0  0 0 1 0 0  0 0 0 1 0"/>
			</filter>
		</defs>
		
			<mask maskUnits="userSpaceOnUse" x="2.5" y="0.59" width="194.33" height="233.28" id="mask0_1380_35_00000005945657206783270770000018195949023211209112_">
			<path class="st3" d="M97.43,0.65c-4.34,0.98-6.56,4.37-9.41,7.5l-4.85,5.03C69.4,26.51,45.62,34.62,26.35,35.14l-10.61,0.04
				c-5.72,0-10.88,0.06-12.88,6.98l-0.06,0.22c-0.2,0.66-0.27,1.31-0.29,1.99v69.36c0,6.04,0.17,10.59,1.06,16.54
				c5.62,36.91,38.2,67.29,67.27,87.38l18,11.48c3.63,2.16,6.9,4.75,11.37,4.2c0.66-0.14,1.25-0.29,1.85-0.52l0.25-0.1
				c2.23-0.86,4.32-2.38,6.34-3.64l20.39-13.17c31.15-21.55,64.69-55.11,65.96-95.47l0.05-65.9c0-6.68,1.79-15.37-5.85-18.65
				c-2.14-0.91-4.34-0.71-6.59-0.71l-7.89-0.01c-3.49,0-6.92-0.37-10.37-0.73l-7.12-1.01c-16.48-2.76-33.34-9.97-44.98-22.29
				l-4.72-5.28c-2.74-3.1-4.78-5.24-8.84-5.24C98.27,0.59,97.87,0.6,97.43,0.65z"/>
		</mask>
		<g class="st4">
			
				<linearGradient id="SVGID_00000151526088513903371610000000591581885430350484_" gradientUnits="userSpaceOnUse" x1="-17.0989" y1="119.2249" x2="175.4413" y2="119.2249" gradientTransform="matrix(1 0 0 -1 0 236.4498)">
				<stop  offset="0" style="stop-color:#33A048"/>
				<stop  offset="1" style="stop-color:#00A28B"/>
			</linearGradient>
			<path style="fill:url(#SVGID_00000151526088513903371610000000591581885430350484_);" d="M196.83,0.59H2.5v233.28h194.33V0.59z"
				/>
		</g>
		<defs>
			
				<filter id="Adobe_OpacityMaskFilter_00000132088658812517784850000003152868699940948408_" filterUnits="userSpaceOnUse" x="18.08" y="23.39" width="161.32" height="192.9">
				<feColorMatrix  type="matrix" values="1 0 0 0 0  0 1 0 0 0  0 0 1 0 0  0 0 0 1 0"/>
			</filter>
		</defs>
		
			<mask maskUnits="userSpaceOnUse" x="18.08" y="23.39" width="161.32" height="192.9" id="mask1_1380_35_00000000208145169126759920000006642980285877218178_">
			<path style="fill:#FFFFFF;filter:url(#Adobe_OpacityMaskFilter_00000132088658812517784850000003152868699940948408_);" d="
				M98.58,23.42c-4.25,2.71-8.04,6.2-12.21,9.09c-14.81,10.23-34.63,18.22-52.4,19.86l-5.36,0.37c-4.32,0.25-8.23,1.1-9.95,5.67
				l-0.06,0.19c-0.32,0.84-0.3,1.88-0.32,2.75l-0.04,52.16c0,3.54-0.15,7.12,0.32,10.64c4.8,36.01,35.84,64.47,65.03,83.38
				l8.03,5.05c2.18,1.33,4.4,2.8,6.8,3.69l0.61-0.06c2.89-1.13,5.57-2.75,8.19-4.35l10.42-6.79c6.07-4.15,12.11-8.38,17.76-13.08
				l10.2-9.26c16.22-15.41,30.46-35.15,33.3-57.89c0.5-3.98,0.37-7.95,0.37-11.96l-0.05-51.18c-0.05-1.18-0.17-2.66-0.56-3.78
				l-0.2-0.44c-1.93-4.01-4.98-4.6-9-4.89l-12.62-1.31c-19.68-3.24-37.12-11.75-52.69-23.95l-4.2-3.25
				c-0.47-0.35-0.66-0.69-1.15-0.69C98.72,23.4,98.66,23.4,98.58,23.42"/>
		</mask>
		<g class="st7">
			
				<linearGradient id="SVGID_00000110442432147042190150000009559640583263017630_" gradientUnits="userSpaceOnUse" x1="-11.2428" y1="180.1462" x2="192.7585" y2="62.2942" gradientTransform="matrix(1 0 0 -1 0 236.4498)">
				<stop  offset="0" style="stop-color:#39B44A"/>
				<stop  offset="0.16" style="stop-color:#38B44E"/>
				<stop  offset="0.32" style="stop-color:#37B35B"/>
				<stop  offset="0.49" style="stop-color:#34B16F"/>
				<stop  offset="0.66" style="stop-color:#31AF8C"/>
				<stop  offset="0.82" style="stop-color:#2CADB2"/>
				<stop  offset="0.99" style="stop-color:#26A9DF"/>
				<stop  offset="1" style="stop-color:#26A9E1"/>
			</linearGradient>
			<path style="fill:url(#SVGID_00000110442432147042190150000009559640583263017630_);" d="M179.4,23.39H18.08v192.9H179.4V23.39z"
				/>
		</g>
		<path class="st9" d="M120.07,67.6c3,0.15,5.03,5.63,13.39,6.45c4.72,0.47,6.93,2.46,7.02,7.5v34.04c0,2.6,0.22,5.46-0.2,8.01
			c-2.99,17.84-16.53,29.55-32.04,37.39c-2.76,1.4-5.7,2.95-8.72,3.71c-3.53,0.88-13.44-5.19-16.48-7.02l-9.41-6.59
			c-7.91-6.5-15.6-16.92-16.54-27.51c-0.27-3.01-0.1-6.15-0.1-9.21V85.79c0-4.55-0.81-10.59,5.31-11.62c3.19-0.52,6-0.14,8.94-2.04
			c1.98-1.28,3.39-4.06,5.85-4.35c2.23-0.27,4.98,0.59,7.18,0.94c7.2,1.13,14.86,1.5,22.11,0.76c4.57-0.45,9.13-1.55,13.69-1.9"/>
		<defs>
			
				<filter id="Adobe_OpacityMaskFilter_00000032640636372377065680000016156056161949509564_" filterUnits="userSpaceOnUse" x="62.12" y="91.5" width="70.22" height="50.98">
				<feColorMatrix  type="matrix" values="1 0 0 0 0  0 1 0 0 0  0 0 1 0 0  0 0 0 1 0"/>
			</filter>
		</defs>
		
			<mask maskUnits="userSpaceOnUse" x="62.12" y="91.5" width="70.22" height="50.98" id="mask2_1380_35_00000111176962712267765500000017444879638763016843_">
			<path style="fill:#FFFFFF;filter:url(#Adobe_OpacityMaskFilter_00000032640636372377065680000016156056161949509564_);" d="
				M120.07,91.5l-0.39,0.04c-3.59,0.71-5.43,2.96-7.84,5.49L91.52,118.7l-4.39-4.52c-1.77-1.9-3.66-4.2-5.95-5.48
				c-7.17-4.03-19.06,5.7-8.89,15.41l5.28,5l5.16,5.03c8.48,8.33,12.02,6.17,19.51-1.69l22.17-23.3c4.62-4.77,7.94-9.86,1.98-15.4
				c-1.67-1.55-3.53-2.28-5.75-2.28c-0.2,0-0.37,0.01-0.57,0.01"/>
		</mask>
		<g class="st11">
			
				<linearGradient id="SVGID_00000148647631997604402650000014683431495947909804_" gradientUnits="userSpaceOnUse" x1="54.5349" y1="144.1615" x2="119.6403" y2="106.4896" gradientTransform="matrix(1 0 0 -1 0 236.4498)">
				<stop  offset="0" style="stop-color:#39B44A"/>
				<stop  offset="0.16" style="stop-color:#38B44E"/>
				<stop  offset="0.32" style="stop-color:#37B35B"/>
				<stop  offset="0.49" style="stop-color:#34B16F"/>
				<stop  offset="0.66" style="stop-color:#31AF8C"/>
				<stop  offset="0.82" style="stop-color:#2CADB2"/>
				<stop  offset="0.99" style="stop-color:#26A9DF"/>
				<stop  offset="1" style="stop-color:#26A9E1"/>
			</linearGradient>
			<path style="fill:url(#SVGID_00000148647631997604402650000014683431495947909804_);" d="M132.34,91.5H62.12v50.98h70.22V91.5z"
				/>
		</g>
	</g>
</g>
</svg>
